# xmcd CD database file
#
# Track frame offsets:
#	225
#	13261
#	24770
#	36709
#	46921
#	61193
#	74104
#	88841
#	102410
#	120580
#	132726
#	144518
#	163328
#	176103
#	185944
#	198208
#	214446
#	227512
#
# Disc length: 3191 seconds
#
# Revision: 2
# Processed by: cddbd v1.5.2PL0 Copyright (c) Steve Scherf et al.
# Submitted via: CDex 1.51
#
DISCID=1c0c7412
DTITLE=Ronny - Seine schoensten Lieder CD2
DYEAR=1995
DGENRE=Country
TTITLE0=Ronny - Kleine Annabell
TTITLE1=Ronny - Dunja Du
TTITLE2=Ronny - Rosen so rot
TTITLE3=Ronny - Eine kleine Traene
TTITLE4=Ronny - Und der Regen, der rinnt
TTITLE5=Ronny - Sonnenschein auf allen Wegen
TTITLE6=Ronny - Esr war nur ein armer Zigeuner
TTITLE7=Ronny - Leb wohl, doswidanje
TTITLE8=Down by the banks of the Ohio
TTITLE9=Ronny - Musst nicht weinen um mich
TTITLE10=Ronny - Little sweetheart Belinda
TTITLE11=Ronny - Jahre kommen und gehn vorbei
TTITLE12=Ronny - Oh Shenandoa
TTITLE13=Ronny - Einmal noch
TTITLE14=Ronny - Glory, Glory Hallelujah
TTITLE15=Ronny - Es haengt ein Pferdehalfter an der Wand
TTITLE16=Ronny - Mit dem Wand muss ich weiterziehn (Wandrin Strar)
TTITLE17=Ronny - Wenn der Tag zu Ende geht
EXTD=YEAR: 1995
EXTT0=
EXTT1=
EXTT2=
EXTT3=
EXTT4=
EXTT5=
EXTT6=
EXTT7=
EXTT8=
EXTT9=
EXTT10=
EXTT11=
EXTT12=
EXTT13=
EXTT14=
EXTT15=
EXTT16=
EXTT17=
PLAYORDER=
